<svg xmlns="http://www.w3.org/2000/svg" width="24" height="24" fill="none" viewBox="0 0 24 24">
    <path stroke="#25282B" stroke-linecap="round" stroke-linejoin="round" stroke-width="2" d="M21 11.5c.003 1.32-.305 2.622-.9 3.8-.706 1.412-1.79 2.6-3.133 3.43-1.342.83-2.889 1.27-4.467 1.27-1.32.003-2.622-.305-3.8-.9L3 21l1.9-5.7c-.595-1.178-.903-2.48-.9-3.8 0-1.578.44-3.125 1.27-4.467C6.1 5.69 7.289 4.606 8.7 3.9c1.178-.595 2.48-.903 3.8-.9h.5c2.084.115 4.053.995 5.53 2.47C20.004 6.948 20.884 8.917 21 11v.5z"/>
</svg>
