<svg xmlns="http://www.w3.org/2000/svg" width="24" height="24" fill="none" viewBox="0 0 24 24">
    <path stroke="#25282B" stroke-linecap="round" stroke-linejoin="round" stroke-width="2" d="M12 14c1.105 0 2-.895 2-2s-.895-2-2-2-2 .895-2 2 .895 2 2 2zM16.24 7.76c.558.557 1 1.219 1.302 1.947.302.729.457 1.51.457 2.298s-.155 1.57-.457 2.298c-.302.728-.744 1.39-1.302 1.947m-8.48-.01c-.558-.557-1-1.219-1.303-1.947-.301-.729-.457-1.51-.457-2.298 0-.789.156-1.57.457-2.298.302-.728.745-1.39 1.303-1.947m11.31-2.82c1.875 1.875 2.928 4.418 2.928 7.07s-1.053 5.195-2.928 7.07m-14.14 0C3.055 17.195 2.002 14.652 2.002 12S3.055 6.805 4.93 4.93"/>
</svg>
