<svg xmlns="http://www.w3.org/2000/svg" width="24" height="24" fill="none" viewBox="0 0 24 24">
    <g clip-path="url(#clip0)">
        <path stroke="#fff" stroke-linecap="round" stroke-linejoin="round" stroke-width="1.5" d="M17.555 4.859H6.446c-.876 0-1.587.71-1.587 1.587v11.108c0 .877.71 1.587 1.587 1.587h11.109c.876 0 1.587-.71 1.587-1.587V6.446c0-.877-.71-1.587-1.587-1.587z"/>
        <path stroke="#fff" stroke-linecap="round" stroke-linejoin="round" stroke-width="1.5" d="M9.223 10.413c.658 0 1.19-.533 1.19-1.19 0-.657-.532-1.19-1.19-1.19-.657 0-1.19.533-1.19 1.19 0 .657.533 1.19 1.19 1.19zM19.142 14.38l-3.968-3.967-8.728 8.728"/>
        <path fill="#fff" d="M18.462.977c0 .54.438.978.977.978h1.607c.552 0 1 .447 1 1V4.56c0 .54.437.977.977.977S24 5.101 24 4.561V1c0-.552-.447-1-1-1h-3.56c-.54 0-.978.438-.978.977zM1.955 2.955c0-.553.447-1 1-1H4.56c.54 0 .977-.438.977-.978S5.101 0 4.561 0H1C.448 0 0 .448 0 1v3.561c0 .54.438.977.977.977.54 0 .978-.437.978-.977V2.955zM5.538 23.023c0-.54-.437-.978-.977-.978H2.955c-.553 0-1-.448-1-1V19.44c0-.54-.438-.978-.978-.978S0 18.9 0 19.44v3.56c0 .553.448 1 1 1h3.561c.54 0 .977-.437.977-.976zM22.046 21.045c0 .552-.448 1-1 1h-1.607c-.54 0-.977.438-.977.977 0 .54.438.978.977.978H23c.553 0 1-.448 1-1v-3.561c0-.54-.437-.978-.977-.978s-.977.438-.977.978v1.606z"/>
    </g>
    <defs>
        <clipPath id="clip0">
            <path fill="#fff" d="M0 0H24V24H0z"/>
        </clipPath>
    </defs>
</svg>
