<svg xmlns="http://www.w3.org/2000/svg" width="20" height="20" fill="none" viewBox="0 0 20 20">
    <path stroke="#8E9197" stroke-linecap="round" stroke-linejoin="round" stroke-width="1.5" d="M15 6.667c1.38 0 2.5-1.12 2.5-2.5 0-1.381-1.12-2.5-2.5-2.5s-2.5 1.119-2.5 2.5c0 1.38 1.12 2.5 2.5 2.5zM5 12.5c1.38 0 2.5-1.12 2.5-2.5S6.38 7.5 5 7.5 2.5 8.62 2.5 10s1.12 2.5 2.5 2.5zM15 18.333c1.38 0 2.5-1.119 2.5-2.5 0-1.38-1.12-2.5-2.5-2.5s-2.5 1.12-2.5 2.5c0 1.381 1.12 2.5 2.5 2.5zM7.158 11.258l5.692 3.317M12.841 5.425L7.159 8.742"/>
</svg>
